# xmcd
#
# Track frame offsets: 
#        150
#        17275
#        38165
#        56758
#        79560
#        103048
#        128050
#        149328
#        163980
#        182475
#
# Disc length: 2669 seconds
#
# Revision: 0
# Processed by: cddbd v1.5.2PL0 Copyright (c) Steve Scherf et al.
# Submitted via: ExactAudioCopy v1.0b3
#
DISCID=7b0a6b0a
DTITLE=Son Tuyen - Hoa Su Nha Nang
DYEAR=1991
DGENRE=
TTITLE0=Hoa su nha nang
TTITLE1=Co hang xom (Vung ngoai o)
TTITLE2=Buom trang (Nguoi hang xom)
TTITLE3=Trang rung xuong cau
TTITLE4=Hoa no ve dem
TTITLE5=Chuyen tinh nguoi dan ao
TTITLE6=Ngoai o den vang
TTITLE7=O kia doi bong them vui
TTITLE8=Thoi doi
TTITLE9=Linh xa nha
EXTD=
EXTT0=
EXTT1=
EXTT2=
EXTT3=
EXTT4=
EXTT5=
EXTT6=
EXTT7=
EXTT8=
EXTT9=
PLAYORDER=
